<svg xmlns="http://www.w3.org/2000/svg" viewBox="0 0 32 32">
  <rect width="32" height="32" fill="#2563eb"/>
  <path d="M16 5 L13 13 L19 13 Z" fill="#ffffff" stroke="#ffffff" stroke-width="0.3"/>
  <path d="M16 5 L14 13 L18 13 Z" fill="#ffffff" opacity="0.8"/>
  <path d="M10 16 Q13 14 16 16 Q19 14 22 16 Q19 18 16 16 Q13 18 10 16 Z" fill="#ffffff" stroke="#ffffff" stroke-width="0.3"/>
  <path d="M8 19 Q13 17 16 19 Q19 17 24 19 Q19 21 16 19 Q13 21 8 19 Z" fill="#ffffff" stroke="#ffffff" stroke-width="0.3"/>
  <path d="M6 22 Q13 20 16 22 Q19 20 26 22 Q19 24 16 22 Q13 24 6 22 Z" fill="#ffffff" stroke="#ffffff" stroke-width="0.3"/>
</svg>
